<svg xmlns="http://www.w3.org/2000/svg" width="1600" height="900" viewBox="0 0 1600 900" fill="none">
  <rect width="1600" height="900" fill="#0C1E35"/>
  <g opacity="0.35">
    <circle cx="210" cy="170" r="3" fill="#7CD4FF"/>
    <circle cx="360" cy="120" r="3" fill="#7CD4FF"/>
    <circle cx="520" cy="210" r="3" fill="#7CD4FF"/>
    <circle cx="760" cy="140" r="3" fill="#7CD4FF"/>
    <circle cx="980" cy="220" r="3" fill="#7CD4FF"/>
    <circle cx="1220" cy="150" r="3" fill="#7CD4FF"/>
    <circle cx="1410" cy="240" r="3" fill="#7CD4FF"/>
    <circle cx="260" cy="420" r="3" fill="#7CD4FF"/>
    <circle cx="470" cy="350" r="3" fill="#7CD4FF"/>
    <circle cx="700" cy="470" r="3" fill="#7CD4FF"/>
    <circle cx="930" cy="390" r="3" fill="#7CD4FF"/>
    <circle cx="1160" cy="500" r="3" fill="#7CD4FF"/>
    <circle cx="1360" cy="420" r="3" fill="#7CD4FF"/>
    <circle cx="190" cy="670" r="3" fill="#7CD4FF"/>
    <circle cx="420" cy="610" r="3" fill="#7CD4FF"/>
    <circle cx="660" cy="710" r="3" fill="#7CD4FF"/>
    <circle cx="910" cy="650" r="3" fill="#7CD4FF"/>
    <circle cx="1150" cy="740" r="3" fill="#7CD4FF"/>
    <circle cx="1380" cy="670" r="3" fill="#7CD4FF"/>
  </g>
  <g opacity="0.25" stroke="#67D6FF" stroke-width="1.5">
    <path d="M210 170H360M360 120L520 210M520 210L760 140M760 140L980 220M980 220L1220 150M1220 150L1410 240"/>
    <path d="M260 420L470 350L700 470L930 390L1160 500L1360 420"/>
    <path d="M190 670L420 610L660 710L910 650L1150 740L1380 670"/>
    <path d="M360 120V350M760 140V470M1220 150V500"/>
    <path d="M470 350V610M930 390V650M1360 420V670"/>
  </g>
  <g opacity="0.12">
    <rect x="80" y="90" width="420" height="240" rx="24" fill="#66C9FF"/>
    <rect x="560" y="320" width="420" height="240" rx="24" fill="#66C9FF"/>
    <rect x="1040" y="120" width="420" height="240" rx="24" fill="#66C9FF"/>
    <rect x="300" y="560" width="420" height="240" rx="24" fill="#66C9FF"/>
    <rect x="860" y="520" width="420" height="240" rx="24" fill="#66C9FF"/>
  </g>
</svg>
